<?xml version="1.0" encoding="utf-8"?>
<!-- Generator: Adobe Illustrator 26.0.3, SVG Export Plug-In . SVG Version: 6.00 Build 0)  -->
<svg version="1.1" id="Layer_1" xmlns="http://www.w3.org/2000/svg" xmlns:xlink="http://www.w3.org/1999/xlink" x="0px" y="0px"
	 viewBox="0 0 270 60.9" style="enable-background:new 0 0 270 60.9;" xml:space="preserve">
<style type="text/css">
	.st0{fill:#1D1D1B;}
	.st1{fill:#B8E5DB;}
	.st2{fill:#00B69F;}
	.st3{fill:#009579;}
	.st4{fill:#58C6B2;}
	.st5{fill:#E2F4EF;}
	.st6{fill:#FFFFFF;}
	.st7{fill:#29B1A3;}
</style>
<g>
	<polygon class="st0" points="46.7,40.5 35.1,20.2 23.4,40.5 	"/>
	<polygon class="st1" points="35.1,60.7 23.4,40.5 11.7,60.7 	"/>
	<polygon class="st2" points="58.4,60.7 46.7,40.5 35.1,60.7 	"/>
	<polygon class="st3" points="23.4,40.5 11.7,20.2 0,40.5 	"/>
	<polygon class="st2" points="70.1,40.5 58.4,20.2 46.7,40.5 	"/>
	<polygon class="st2" points="35.1,20.2 23.4,0 11.7,20.2 	"/>
	<polygon class="st1" points="58.4,20.2 46.7,0 35.1,20.2 	"/>
	<polygon class="st4" points="11.7,20.2 23.4,40.5 35.1,20.2 	"/>
	<polygon class="st3" points="35.1,20.2 46.7,40.5 58.4,20.2 	"/>
	<polygon class="st5" points="23.4,40.5 35.1,60.7 46.7,40.5 	"/>
	<polygon class="st4" points="46.7,40.5 58.4,60.7 70.1,40.5 	"/>
	<polygon class="st2" points="0,40.5 11.7,60.7 23.4,40.5 	"/>
	<polygon class="st4" points="23.4,0 35.1,20.2 46.7,0 	"/>
</g>
<g>
	<g>
		<path class="st6" d="M114.6,40c0,0.4-0.2,0.6-0.6,0.6h-0.8c-0.4,0-0.6-0.2-0.6-0.6V25.7c0-2.5-1.1-4.2-4.1-4.2
			c-1.8,0-3.9,0.8-5,1.4c0.1,0.4,0.2,0.8,0.2,1.2V40c0,0.4-0.2,0.6-0.6,0.6h-0.8c-0.4,0-0.6-0.2-0.6-0.6V24.2c0-1.5-1.2-2.6-4.3-2.6
			c-1.6,0-3.8,0.8-4.6,1.3V40c0,0.4-0.2,0.6-0.6,0.6h-0.8c-0.4,0-0.6-0.2-0.6-0.6V22.4c0-0.4,0.2-0.6,0.6-0.8
			c1.1-0.7,3.8-1.6,6.1-1.6c2.5,0,4.1,0.5,5.1,1.5c1.7-0.8,4-1.5,6.1-1.5c4.1,0,5.9,2.4,5.9,5.9V40z"/>
		<path class="st6" d="M121.3,20.9c0-0.4,0.2-0.6,0.6-0.6h0.7c0.4,0,0.6,0.2,0.6,0.6v13c0,3.3,1.4,5.4,5,5.4c1.7,0,3.9-0.3,4.7-0.5
			V20.9c0-0.4,0.2-0.6,0.6-0.6h0.7c0.4,0,0.6,0.2,0.6,0.6v18.5c0,0.5-0.1,0.7-0.6,0.8c-1.2,0.3-3.9,0.8-6.2,0.8
			c-4.8,0-6.8-2.7-6.8-6.9V20.9z"/>
		<path class="st6" d="M152.2,39c0.4,0,0.6,0.2,0.6,0.6V40c0,0.4-0.2,0.6-0.6,0.6h-4.4c-4.4,0-6.3-2.1-6.3-6.4V20.9
			c0-0.4,0.2-0.6,0.6-0.6h0.8c0.4,0,0.6,0.2,0.6,0.6v13c0,3.4,1.4,5.2,5,5.2H152.2z"/>
		<path class="st6" d="M159.8,40.6c-0.4,0-0.6-0.2-0.6-0.6V21.8h-5.2c-0.5,0-0.6-0.2-0.6-0.6v-0.3c0-0.4,0.2-0.6,0.6-0.6h12.3
			c0.4,0,0.6,0.2,0.6,0.6v0.3c0,0.4-0.2,0.6-0.6,0.6h-5.1V40c0,0.4-0.2,0.6-0.6,0.6H159.8z"/>
		<path class="st6" d="M172.3,40.6c-0.4,0-0.6-0.2-0.6-0.6V20.9c0-0.4,0.2-0.6,0.6-0.6h0.8c0.4,0,0.6,0.2,0.6,0.6V40
			c0,0.4-0.2,0.6-0.6,0.6H172.3z"/>
		<path class="st6" d="M192,20.8c0.1-0.3,0.1-0.6,0.6-0.6h0.7c0.5,0,0.6,0.2,0.5,0.6c-1.6,9.5-4.2,16.6-5.8,19.1
			c-0.3,0.4-0.6,0.6-1,0.6h-0.7c-0.5,0-0.8-0.3-1.1-0.6c-1.5-2.6-4.3-9.7-5.8-19.1c-0.1-0.4,0-0.6,0.5-0.6h0.8
			c0.5,0,0.6,0.3,0.7,0.6c1.8,10.5,4,15,5.3,18C188.1,35.7,190.2,30.9,192,20.8z"/>
		<path class="st6" d="M200.3,40.6c-0.4,0-0.6-0.2-0.6-0.6V20.9c0-0.4,0.2-0.6,0.6-0.6h0.8c0.4,0,0.6,0.2,0.6,0.6V40
			c0,0.4-0.2,0.6-0.6,0.6H200.3z"/>
		<path class="st6" d="M219.4,21.4c-0.1,0.4-0.2,0.6-0.6,0.5c-0.9-0.2-2.6-0.5-4.4-0.5c-2.8,0-4.7,0.5-4.7,3.2
			c0,5.6,10.2,2.3,10.2,10.6c0,3.4-1.9,5.6-7,5.6c-2.1,0-3.6-0.2-4.9-0.5c-0.5,0-0.6-0.2-0.6-0.6v-0.3c0-0.4,0.3-0.6,0.6-0.5
			c0.8,0.2,3.1,0.4,4.8,0.4c4.4,0,5-2.3,5-4c0-6.7-10.2-3.5-10.2-10.5c0-3.9,2.8-4.9,6.6-4.9c1.6,0,3.1,0.2,4.6,0.5
			c0.4,0.1,0.5,0.2,0.5,0.6L219.4,21.4z"/>
		<path class="st6" d="M226.6,40.6c-0.4,0-0.6-0.2-0.6-0.6V20.9c0-0.4,0.2-0.6,0.6-0.6h0.8c0.4,0,0.6,0.2,0.6,0.6V40
			c0,0.4-0.2,0.6-0.6,0.6H226.6z"/>
		<path class="st6" d="M233.8,30c0-6.3,2.7-10.1,8.3-10.1c5.5,0,8.2,3.7,8.2,10.1v0.7c0,6.3-2.7,10.2-8.2,10.2
			c-5.6,0-8.3-3.9-8.3-10.2V30z M248.2,30c0-5.5-2.1-8.5-6.2-8.5c-4.2,0-6.2,3.1-6.2,8.5v0.7c0,5.4,2,8.6,6.2,8.6
			c4.1,0,6.2-3.2,6.2-8.6V30z"/>
		<path class="st6" d="M269.5,40c0,0.4-0.2,0.6-0.6,0.6h-0.8c-0.4,0-0.6-0.2-0.6-0.6V26.2c0-2.7-1.1-4.6-4.3-4.6
			c-1.8,0-4.2,0.8-5.1,1.3V40c0,0.4-0.2,0.6-0.6,0.6h-0.8c-0.4,0-0.6-0.2-0.6-0.6V22.4c0-0.4,0.2-0.6,0.6-0.8
			c1.3-0.7,4.1-1.7,6.6-1.7c4.3,0,6.1,2.4,6.1,6.1V40z"/>
	</g>
	<g>
		<path class="st7" d="M97.6,51.1c0,0.2-0.1,0.3-0.3,0.3c-0.8-0.1-1.4-0.2-2-0.2c-2.7,0-3.6,1.4-3.6,4.2v0.3c0,2.8,0.9,4.2,3.3,4.2
			c0.4,0,1.1,0,1.7-0.1v-3.8c0-0.2,0.1-0.3,0.3-0.3h0.4c0.2,0,0.3,0.1,0.3,0.3V60c0,0.2-0.1,0.3-0.2,0.3l-0.1,0
			c-0.7,0.1-1.4,0.3-2.4,0.3c-3.1,0-4.3-1.7-4.3-5v-0.3c0-3.2,1.3-5,4.5-5c0.7,0,1.4,0.1,2.2,0.2c0.2,0,0.3,0.1,0.2,0.4L97.6,51.1z"
			/>
		<path class="st7" d="M105.2,53.5v-0.2c0-1.5-0.7-2.2-2.3-2.2c-0.6,0-1.2,0.1-1.6,0.1v4.3c0.3,0,1,0.1,1.5,0.1
			C104.5,55.6,105.2,54.9,105.2,53.5 M100.6,60.4c-0.2,0-0.3-0.1-0.3-0.3v-9.3c0-0.2,0.1-0.3,0.3-0.3c0.5-0.1,1.4-0.2,2.3-0.2
			c2.3,0,3.3,0.9,3.3,2.9v0.2c0,1.5-0.7,2.4-2.2,2.7c0.9,0.7,2.1,2.1,2.6,3.9c0.1,0.3,0,0.3-0.2,0.3H106c-0.2,0-0.3-0.1-0.4-0.3
			c-0.6-2-2.3-3.6-3-3.9c-0.4,0-0.9,0-1.3-0.1v3.9c0,0.2-0.1,0.3-0.3,0.3H100.6z"/>
		<path class="st7" d="M115.4,55.2c0-2.7-1-4.2-3-4.2c-2.1,0-3,1.5-3,4.2v0.3c0,2.6,1,4.2,3,4.2c2,0,3-1.6,3-4.2V55.2z M108.3,55.2
			c0-3.1,1.3-4.9,4.1-4.9c2.7,0,4,1.8,4,4.9v0.3c0,3.1-1.3,5-4,5c-2.7,0-4.1-1.9-4.1-5V55.2z"/>
		<path class="st7" d="M129.4,50.8c0-0.2,0.1-0.3,0.3-0.3h0.4c0.3,0,0.3,0.1,0.3,0.3c-0.4,4.7-2,8.4-2.7,9.4
			c-0.1,0.2-0.2,0.3-0.4,0.3h-0.4c-0.2,0-0.3-0.1-0.4-0.3c-0.5-0.7-1.8-3.3-2.2-7.8c-0.4,4.5-1.7,7.1-2.2,7.8
			c-0.1,0.2-0.2,0.3-0.4,0.3h-0.4c-0.2,0-0.3-0.1-0.4-0.3c-0.7-1-2.3-4.7-2.6-9.4c0-0.2,0-0.3,0.3-0.3h0.4c0.2,0,0.3,0.1,0.3,0.3
			c0.6,5.7,1.9,8.2,2.3,8.8c0.3-0.5,1.7-3,2.3-8.8c0-0.2,0.1-0.3,0.3-0.3h0.4c0.2,0,0.3,0.1,0.3,0.3c0.6,5.7,1.9,8.2,2.3,8.8
			C127.5,59,128.8,56.5,129.4,50.8"/>
		<path class="st7" d="M138.2,60.4c-0.2,0-0.3-0.1-0.3-0.3v-8.9h-2.6c-0.2,0-0.3-0.1-0.3-0.3v-0.2c0-0.2,0.1-0.3,0.3-0.3h6.1
			c0.2,0,0.3,0.1,0.3,0.3v0.2c0,0.2-0.1,0.3-0.3,0.3h-2.5v8.9c0,0.2-0.1,0.3-0.3,0.3H138.2z"/>
		<path class="st7" d="M149.5,55.2c0-2.7-1-4.2-3-4.2c-2.1,0-3,1.5-3,4.2v0.3c0,2.6,1,4.2,3,4.2c2,0,3-1.6,3-4.2V55.2z M142.4,55.2
			c0-3.1,1.3-4.9,4.1-4.9c2.7,0,4,1.8,4,4.9v0.3c0,3.1-1.3,5-4,5c-2.7,0-4.1-1.9-4.1-5V55.2z"/>
		<path class="st7" d="M168.2,60.1c0,0.2-0.1,0.3-0.3,0.3h-0.4c-0.2,0-0.3-0.1-0.3-0.3v-7c0-1.2-0.6-2.1-2-2.1
			c-0.9,0-1.9,0.4-2.5,0.7c0.1,0.2,0.1,0.4,0.1,0.6v7.8c0,0.2-0.1,0.3-0.3,0.3h-0.4c-0.2,0-0.3-0.1-0.3-0.3v-7.7
			c0-0.7-0.6-1.3-2.1-1.3c-0.8,0-1.9,0.4-2.3,0.6v8.4c0,0.2-0.1,0.3-0.3,0.3h-0.4c-0.2,0-0.3-0.1-0.3-0.3v-8.6
			c0-0.2,0.1-0.3,0.3-0.4c0.6-0.3,1.9-0.8,3-0.8c1.2,0,2,0.3,2.5,0.7c0.8-0.4,2-0.7,3-0.7c2,0,2.9,1.2,2.9,2.9V60.1z"/>
		<path class="st7" d="M171.9,56.7h4c-0.7-3.1-1.7-5-2-5.4C173.6,51.7,172.6,53.7,171.9,56.7 M176.1,57.5h-4.3
			c-0.1,0.8-0.3,1.7-0.3,2.6c0,0.2-0.1,0.3-0.3,0.3h-0.4c-0.2,0-0.3-0.1-0.3-0.3c0.4-5.6,2.4-9,2.9-9.4c0.2-0.2,0.3-0.3,0.5-0.3h0.3
			c0.2,0,0.3,0.1,0.5,0.3c0.5,0.4,2.4,3.8,2.9,9.4c0,0.2,0,0.3-0.3,0.3h-0.4c-0.2,0-0.3-0.1-0.3-0.3
			C176.4,59.3,176.2,58.3,176.1,57.5"/>
		<path class="st7" d="M180,60.4c-0.2,0-0.3-0.1-0.3-0.3v-9.4c0-0.2,0.1-0.3,0.3-0.3h0.4c0.2,0,0.3,0.1,0.3,0.3v4c1-0.4,3.2-2,4-4
			c0.1-0.2,0.2-0.3,0.4-0.3h0.3c0.3,0,0.3,0.1,0.3,0.3c-0.8,2.2-2.8,3.7-4,4.4c1.3,0.8,3.5,2.5,4.1,4.9c0.1,0.2,0,0.3-0.2,0.3h-0.4
			c-0.2,0-0.3-0.1-0.4-0.3c-0.7-2.3-3.2-4.1-4.1-4.6v4.6c0,0.2-0.1,0.3-0.3,0.3H180z"/>
		<path class="st7" d="M193.7,50.9c0,0.2-0.1,0.3-0.3,0.3c-0.4,0-1-0.1-1.9-0.1c-1.8,0-2.6,0.4-2.6,1.7v0.2c0,1.2,0.8,1.7,2.7,1.7
			h0.7c0.2,0,0.3,0.1,0.3,0.3v0.1c0,0.2-0.1,0.3-0.3,0.3h-0.8c-2.1,0-2.9,0.7-2.9,2.1v0.2c0,1.5,0.8,2.1,2.8,2.1
			c0.7,0,1.7-0.1,2.2-0.1c0.2,0,0.3,0.1,0.3,0.3v0.1c0,0.2-0.1,0.3-0.2,0.3c-0.5,0.1-1.7,0.2-2.5,0.2c-2.5,0-3.6-0.9-3.6-2.9v-0.2
			c0-1.4,0.6-2.2,2.1-2.5c-1.2-0.3-1.8-1-1.8-2.1v-0.2c0-1.8,1.1-2.4,3.4-2.4c1.1,0,1.8,0.1,2.2,0.1
			C193.7,50.4,193.8,50.5,193.7,50.9L193.7,50.9z"/>
		<path class="st7" d="M204.7,50.7c0-0.1,0.1-0.3,0.4-0.3h0.4c0.2,0,0.3,0.1,0.3,0.3c-0.4,3.1-2.3,5.4-2.9,5.9v3.5
			c0,0.2-0.1,0.3-0.3,0.3h-0.4c-0.2,0-0.3-0.1-0.3-0.3v-3.5c-0.6-0.6-2.5-2.9-2.9-5.9c0-0.2,0-0.3,0.3-0.3h0.4
			c0.3,0,0.3,0.1,0.4,0.3c0.4,2.8,1.9,4.7,2.4,5C202.7,55.5,204.3,53.4,204.7,50.7"/>
		<path class="st7" d="M213.9,55.2c0-2.7-1-4.2-3-4.2c-2.1,0-3,1.5-3,4.2v0.3c0,2.6,1,4.2,3,4.2c2,0,3-1.6,3-4.2V55.2z M206.8,55.2
			c0-3.1,1.3-4.9,4.1-4.9c2.7,0,4,1.8,4,4.9v0.3c0,3.1-1.3,5-4,5c-2.7,0-4.1-1.9-4.1-5V55.2z"/>
		<path class="st7" d="M217.2,50.8c0-0.2,0.1-0.3,0.3-0.3h0.3c0.2,0,0.3,0.1,0.3,0.3v6.4c0,1.6,0.7,2.7,2.4,2.7
			c0.8,0,1.9-0.2,2.3-0.3v-8.8c0-0.2,0.1-0.3,0.3-0.3h0.3c0.2,0,0.3,0.1,0.3,0.3v9.1c0,0.2-0.1,0.3-0.3,0.4c-0.6,0.2-1.9,0.4-3,0.4
			c-2.4,0-3.3-1.3-3.3-3.4V50.8z"/>
		<path class="st7" d="M236.7,51.1c0,0.2-0.1,0.3-0.3,0.3c-0.8-0.1-1.4-0.2-2-0.2c-2.7,0-3.6,1.4-3.6,4.2v0.3c0,2.8,0.9,4.2,3.3,4.2
			c0.4,0,1.1,0,1.7-0.1v-3.8c0-0.2,0.1-0.3,0.3-0.3h0.4c0.2,0,0.3,0.1,0.3,0.3V60c0,0.2-0.1,0.3-0.2,0.3l-0.1,0
			c-0.7,0.1-1.4,0.3-2.4,0.3c-3.1,0-4.3-1.7-4.3-5v-0.3c0-3.2,1.3-5,4.5-5c0.7,0,1.4,0.1,2.2,0.2c0.2,0,0.3,0.1,0.3,0.4L236.7,51.1z
			"/>
		<path class="st7" d="M244.3,53.5v-0.2c0-1.5-0.7-2.2-2.3-2.2c-0.6,0-1.2,0.1-1.6,0.1v4.3c0.3,0,1,0.1,1.5,0.1
			C243.6,55.6,244.3,54.9,244.3,53.5 M239.7,60.4c-0.2,0-0.3-0.1-0.3-0.3v-9.3c0-0.2,0.1-0.3,0.3-0.3c0.5-0.1,1.4-0.2,2.3-0.2
			c2.3,0,3.3,0.9,3.3,2.9v0.2c0,1.5-0.7,2.4-2.2,2.7c0.9,0.7,2.1,2.1,2.6,3.9c0.1,0.3,0,0.3-0.2,0.3h-0.4c-0.2,0-0.3-0.1-0.4-0.3
			c-0.6-2-2.3-3.6-3-3.9c-0.4,0-0.9,0-1.3-0.1v3.9c0,0.2-0.1,0.3-0.3,0.3H239.7z"/>
		<path class="st7" d="M254.5,55.2c0-2.7-1-4.2-3-4.2c-2.1,0-3,1.5-3,4.2v0.3c0,2.6,1,4.2,3,4.2c2,0,3-1.6,3-4.2V55.2z M247.4,55.2
			c0-3.1,1.3-4.9,4.1-4.9c2.7,0,4,1.8,4,4.9v0.3c0,3.1-1.3,5-4,5c-2.7,0-4.1-1.9-4.1-5V55.2z"/>
		<path class="st7" d="M268.5,50.8c0-0.2,0.1-0.3,0.3-0.3h0.4c0.3,0,0.3,0.1,0.3,0.3c-0.4,4.7-2,8.4-2.7,9.4
			c-0.1,0.2-0.2,0.3-0.4,0.3H266c-0.2,0-0.3-0.1-0.4-0.3c-0.5-0.7-1.8-3.3-2.2-7.8c-0.4,4.5-1.7,7.1-2.2,7.8
			c-0.1,0.2-0.2,0.3-0.4,0.3h-0.4c-0.2,0-0.3-0.1-0.4-0.3c-0.7-1-2.3-4.7-2.6-9.4c0-0.2,0-0.3,0.3-0.3h0.4c0.2,0,0.3,0.1,0.3,0.3
			c0.6,5.7,1.9,8.2,2.3,8.8c0.3-0.5,1.7-3,2.3-8.8c0-0.2,0.1-0.3,0.3-0.3h0.4c0.2,0,0.3,0.1,0.3,0.3c0.6,5.7,1.9,8.2,2.3,8.8
			C266.6,59,267.9,56.5,268.5,50.8"/>
	</g>
</g>
</svg>
